<svg width="32" height="35" viewBox="0 0 32 35" fill="none" xmlns="http://www.w3.org/2000/svg">
<path d="M23 6.99531L29.5759 0.418766C30.4704 -0.475816 32 0.157766 32 1.423V18.9964C31.9999 13.2963 27.4869 9.82971 23 6.99531Z" fill="#FF7236"/>
<path d="M31.9998 18.9966C31.9998 27.834 24.8363 34.998 15.9999 34.998C7.16344 34.998 0 27.8339 0 18.9966C0 10.1593 7.16333 3.99524 15.9999 3.99524C24.8364 3.99524 31.9998 10.1592 31.9998 18.9966Z" fill="#FFAA50"/>
<path d="M9.00001 18.9964C9.00001 11.2947 13.4219 5.62687 19.3103 4.29649C18.2417 4.1004 17.1354 3.99505 16 3.99505C13.0556 3.99505 10.3064 4.6923 7.93662 5.93182L2.4241 0.418766C1.5296 -0.475816 0 0.157766 0 1.423V18.9964C0 18.6357 0 18.6377 0 18.9964C0 27.8338 7.16344 34.9978 15.9999 34.9978C17.1354 34.9978 18.2417 34.8756 19.3102 34.6508C13.4219 33.1252 9.00001 26.6981 9.00001 18.9964Z" fill="#FF7236"/>
<path d="M12.4999 28.9973C14.4329 28.9973 15.9999 27.6541 15.9999 25.9971C15.9999 24.3401 14.4329 22.9968 12.4999 22.9968C10.567 22.9968 9 24.3401 9 25.9971C9 27.6541 10.567 28.9973 12.4999 28.9973Z" fill="#FFFDFB"/>
<path d="M19.4999 28.9973C21.4329 28.9973 22.9999 27.6541 22.9999 25.9971C22.9999 24.3401 21.4329 22.9968 19.4999 22.9968C17.567 22.9968 16 24.3401 16 25.9971C16 27.6541 17.567 28.9973 19.4999 28.9973Z" fill="#FFFDFB"/>
<path d="M16 25.9977C17.1046 25.9977 18 25.1022 18 23.9975C18 22.8928 17.1046 21.9973 16 21.9973C14.8954 21.9973 14 22.8928 14 23.9975C14 25.1022 14.8954 25.9977 16 25.9977Z" fill="#FF913C"/>
<path d="M9.99995 19.9965C9.44719 19.9965 9 19.5487 9 18.9964V17.9964C9 17.4441 9.44731 16.9963 9.99995 16.9963C10.5526 16.9963 10.9999 17.4441 10.9999 17.9964V18.9964C10.9999 19.5487 10.5526 19.9965 9.99995 19.9965Z" fill="#1A212F"/>
<path d="M22 19.9965C21.4472 19.9965 21 19.5487 21 18.9964V17.9964C21 17.4441 21.4473 16.9963 22 16.9963C22.5527 16.9963 22.9999 17.4441 22.9999 17.9964V18.9964C23 19.5487 22.5527 19.9965 22 19.9965Z" fill="#1A212F"/>
</svg>
