<svg width="21" height="18" viewBox="0 0 21 18" fill="none" xmlns="http://www.w3.org/2000/svg">
<path d="M16.8034 6.52459C13.8389 8.22475 14.3438 13.1874 17.5593 13.1874C18.9462 13.1874 20.1464 12.1449 20.6808 10.812C21.915 7.73361 19.3485 5.06439 16.8034 6.52459Z" fill="#FF7236"/>
<path d="M13.7585 7.13911C17.3153 7.13911 18.3803 1.0992 15.0011 0.106215C13.4616 -0.346048 11.7109 0.739136 11.1486 2.72287C10.5177 4.94631 11.7589 7.13911 13.7585 7.13911Z" fill="#FF7236"/>
<path d="M12.8435 17.8903C12.3495 17.7537 11.4729 17.6658 10.5552 17.6531C9.58527 17.6389 8.56973 17.7084 7.91265 17.8903C6.138 18.3847 3.72324 17.1886 4.25306 14.7045C4.74314 12.408 6.50398 12.5389 6.92038 10.3625C7.33992 8.16298 8.97037 7.10147 10.5552 7.18444C12.0221 7.26144 13.4497 8.31922 13.8387 10.363C14.2526 12.5409 16.0098 12.4088 16.4992 14.7045C17.031 17.1906 14.6111 18.3802 12.8435 17.8903Z" fill="#FF7236"/>
<path d="M7.49834 7.13932C8.50443 7.13932 9.36848 6.55499 9.84862 5.66068C11.2759 3.00141 8.93173 -0.680001 6.25546 0.10841C2.8705 1.10414 3.94348 7.13932 7.49834 7.13932Z" fill="#FF7236"/>
<path d="M5.89091 11.21C7.03297 8.41567 4.32591 5.00238 1.74052 6.07635C-1.37374 7.36985 -0.000207816 12.9488 3.42404 12.9488C4.52296 12.9488 5.45682 12.2723 5.89091 11.21Z" fill="#FF7236"/>
<path d="M12.8439 17.8902C12.3499 17.7537 11.4733 17.6657 10.5557 17.653V7.1844C12.0225 7.2614 13.4501 8.31917 13.8391 10.363C14.2531 12.5408 16.0103 12.4087 16.4996 14.7045C17.0314 17.1905 14.6115 18.3801 12.8439 17.8902Z" fill="#FF7236"/>
</svg>
